<svg xmlns="http://www.w3.org/2000/svg" width="130" height="130">
    <defs>
        <linearGradient id="7hlsq3a4ca" x1="0%" x2="0%" y1="100%" y2="0%">
            <stop offset="0%" stop-color="#5691F5"/>
            <stop offset="100%" stop-color="#9667EF"/>
        </linearGradient>
    </defs>
    <path fill-rule="evenodd" fill="#E4B90B" d="M64.1 0c36.799 0 65 29.101 65 65s-28.201 65-65 65C29.102 130-.001 100.899-.001 65S29.102 0 64.1 0z"/>
    <path fill="url(#7hlsq3a4ca)" d="M64.1 0c36.799 0 65 29.101 65 65s-28.201 65-65 65C29.102 130-.001 100.899-.001 65S29.102 0 64.1 0z"/>
    <path fill-rule="evenodd" fill="#FFF" d="M75.4 104.824c-14.566 0-26.417-11.797-26.417-26.296 0-14.499 11.851-26.296 26.417-26.296 14.567 0 26.417 11.797 26.417 26.296 0 14.499-11.85 26.296-26.417 26.296zm0-49.992c-13.126 0-23.805 10.63-23.805 23.696 0 13.067 10.679 23.696 23.805 23.696s23.806-10.629 23.806-23.696c0-13.066-10.68-23.696-23.806-23.696zm8.37 22.913c-.335 0-.669-.127-.924-.381l-6.14-6.113v17.692c0 .718-.585 1.3-1.306 1.3a1.303 1.303 0 0 1-1.306-1.3V71.251l-6.141 6.113a1.309 1.309 0 0 1-1.847 0 1.295 1.295 0 0 1 0-1.838l8.371-8.331.001-.001.922-.918.922.917.003.003 8.368 8.331c.51.507.51 1.329 0 1.837a1.304 1.304 0 0 1-.923.381zm-9.957-32.018a1.303 1.303 0 0 1-1.306-1.299v-4.044c-3.877 3.415-11.706 5.706-20.952 5.706-9.247 0-17.076-2.291-20.953-5.706v4.406c0 3.797 8.605 8.028 20.953 8.028.721 0 1.305.582 1.305 1.3 0 .718-.584 1.3-1.305 1.3-9.247 0-17.076-2.29-20.953-5.705v5.572c0 3.366 6.2 6.584 14.743 7.652a1.3 1.3 0 1 1-.324 2.578c-6.506-.813-11.561-2.704-14.419-5.219v5.484c0 3.11 5.389 6.16 13.106 7.416a1.301 1.301 0 0 1 1.077 1.493 1.303 1.303 0 0 1-1.5 1.072C33.852 74.224 27.99 70.4 27.99 65.78V35.46c0-5.96 10.352-10.628 23.565-10.628 13.212 0 23.564 4.668 23.564 10.628v8.968c0 .717-.585 1.299-1.306 1.299zM51.555 27.431c-12.348 0-20.953 4.232-20.953 8.029 0 3.798 8.605 8.03 20.953 8.03 12.347 0 20.952-4.232 20.952-8.03 0-3.797-8.605-8.029-20.952-8.029z"/>
</svg>
