<svg xmlns="http://www.w3.org/2000/svg" width="27" height="21">
    <path fill-rule="evenodd" fill="#1483F3" d="M26.51 14.137a.683.683 0 0 1-.949-.191l-1.685-2.547c-.4 4.175-3.553 8.017-7.818 9.026a9.897 9.897 0 0 1-2.303.272c-2.597 0-5.105-1.026-7.011-2.93a.698.698 0 0 1-.006-.977.679.679 0 0 1 .968-.005c2.128 2.126 5.134 2.983 8.04 2.294 3.899-.923 6.736-4.57 6.812-8.399l-2.461 2.967a.683.683 0 0 1-.966.087.702.702 0 0 1-.087-.976l3.518-4.238a.702.702 0 0 1 .565-.246.679.679 0 0 1 .53.306l.009.014.015.022 3.016 4.562a.695.695 0 0 1-.187.959zm-6.261-9.295a8.566 8.566 0 0 0-8.439-2.724c-2.355.557-4.439 2.109-5.711 4.257a8.794 8.794 0 0 0-1.202 5.387l2.565-3.091a.681.681 0 0 1 .964-.086.699.699 0 0 1 .085.974l-3.517 4.238a.677.677 0 0 1-.525.248l-.037-.001a.676.676 0 0 1-.529-.306L.857 9.14a.696.696 0 0 1 .191-.958.68.68 0 0 1 .95.189l1.485 2.25c.048-1.722.527-3.42 1.441-4.958C6.387 3.198 8.783 1.414 11.499.772c3.589-.852 7.335.357 9.779 3.155a.703.703 0 0 1-.061.976.684.684 0 0 1-.968-.061z"/>
</svg>
