<svg xmlns="http://www.w3.org/2000/svg" width="21" height="14">
    <path fill-rule="evenodd" fill="#2E2E2E" d="M20.534 4.91c-.178-.265-.482-.417-.833-.417l-3.554-.002c.024-.076.033-.157.024-.24l-.178-1.622a1.246 1.246 0 0 0-1.223-1.098H8.63a.467.467 0 0 1-.185-.073L7.539.597a1.576 1.576 0 0 0-1-.399H1.801a1.103 1.103 0 0 0-1.109 1.22l1.095 11.564v.003c.054.535.403.931.889 1.008.024.004.043-.893 3.332-.893 1.996 0 5.199.899 10.339.896.554-.001 1.128-.389 1.335-.903l2.926-7.253c.132-.325.106-.664-.074-.93zM5.82 5.388l-2.882 7.157L1.882 1.387h4.655a.462.462 0 0 1 .184.073l.906.86c.248.236.66.4 1.001.4h6.141c.014.001.041.025.044.038l.177 1.623a.658.658 0 0 0 .022.109l-7.856-.005c-.555 0-1.129.388-1.336.903zm1.102.444c.027-.068.16-.158.234-.158l12.236.007-2.811 6.967c-.027.068-.161.159-.235.159l-12.236.009 2.812-6.984z"/>
</svg>
