<svg xmlns="http://www.w3.org/2000/svg" width="24" height="24">
    <path fill-rule="evenodd" fill="#1483F3" d="M11.999 23.998c-6.627 0-12-5.372-12-12 0-6.627 5.373-11.999 12-11.999s12 5.372 12 11.999c0 6.628-5.373 12-12 12zm5.633-17.143H14.937V6.12a.733.733 0 0 0-.734-.734H9.795a.734.734 0 0 0-.735.734v.735H6.366a.735.735 0 1 0 0 1.47h.735v9.061c0 .406.329.735.735.735h8.326a.735.735 0 0 0 .735-.735V8.325h.735a.735.735 0 1 0 0-1.47zM8.57 8.325H15.428v8.327H8.57V8.325zm4.898 6.612a.736.736 0 0 0 1.469 0V9.304a.734.734 0 1 0-1.469 0v5.633zm-2.204.246a.735.735 0 0 0 1.47 0V9.549a.736.736 0 0 0-1.47 0v5.634zm-2.204 0a.735.735 0 0 0 1.469 0V9.549a.735.735 0 0 0-1.469 0v5.634z"/>
</svg>
