<svg xmlns="http://www.w3.org/2000/svg" width="16" height="31">
    <path fill-rule="evenodd" fill="#2E2E2E" d="M14.756 20.531h-1.964l-1.25 9.708a.64.64 0 0 1-.636.559H4.489a.64.64 0 0 1-.636-.559l-1.251-9.708H.64a.643.643 0 0 1-.643-.642v-9.625c0-.286.189-.538.465-.617l4.492-1.283c.3-.085.613.054.75.331l1.994 3.985L9.69 8.695a.64.64 0 0 1 .75-.331l4.493 1.283a.642.642 0 0 1 .464.617v9.625a.64.64 0 0 1-.641.642zm-.641-9.783L10.6 9.744l-2.329 4.657c-.217.435-.93.435-1.148 0L4.795 9.744l-3.514 1.004v8.5h1.884c.324 0 .596.239.638.559l1.251 9.708h5.287l1.25-9.708a.64.64 0 0 1 .636-.559h1.888v-8.5zm-6.417-3.05a3.854 3.854 0 0 1-3.851-3.849A3.855 3.855 0 0 1 7.698-.002a3.854 3.854 0 0 1 3.85 3.851 3.854 3.854 0 0 1-3.85 3.849zm0-6.417a2.57 2.57 0 0 0-2.567 2.568 2.569 2.569 0 0 0 2.567 2.566 2.568 2.568 0 0 0 0-5.134z"/>
</svg>
