<svg xmlns="http://www.w3.org/2000/svg" width="18" height="21">
    <path fill-rule="evenodd" fill="#353535" d="M16.621 15.836c-.694.877-1.654 1.758-2.855 2.618a25.693 25.693 0 0 1-4.084 2.368.607.607 0 0 1-.486 0 25.644 25.644 0 0 1-4.084-2.368c-1.2-.86-2.161-1.741-2.855-2.618-.909-1.148-1.37-2.302-1.37-3.429V3.741a.59.59 0 0 1 .423-.564L9.268.814a.603.603 0 0 1 .342 0l7.957 2.363a.59.59 0 0 1 .424.564v8.666c0 1.127-.461 2.281-1.37 3.429zM8.744 6.673c-.557-.487-1.307-.732-2.253-.732H3.253v8.38h1.47v-3.108h1.75c.981 0 1.744-.228 2.288-.685.545-.457.817-1.097.817-1.919 0-.803-.278-1.448-.834-1.936zm3.671-.732H10.95v8.38h1.465v-8.38zm3.36 0H14.31v8.38h1.465v-8.38zm-9.284 4.098H4.723V7.116h1.809c.488.007.872.146 1.151.417.279.27.418.632.418 1.085 0 .46-.137.812-.412 1.056-.276.243-.675.365-1.198.365z"/>
</svg>
