<svg xmlns="http://www.w3.org/2000/svg" width="17" height="17">
    <path fill-rule="evenodd" fill="#2E2E2E" d="M15.557 3.94h-1.371v12.347a.565.565 0 0 1-.565.565H2.645a.565.565 0 0 1-.564-.565V3.94H.709a.565.565 0 0 1 0-1.13H4.663V1.438c0-.312.253-.565.566-.565h5.81c.312 0 .564.253.564.565V2.81H15.557a.565.565 0 1 1 0 1.13zm-5.083-1.937H5.793v.807h4.681v-.807zm2.582 1.937H3.211v11.782h9.845V3.94zM5.229 5.392c.311 0 .564.253.564.565v7.425a.565.565 0 1 1-1.13 0V5.957c0-.312.253-.565.566-.565zm2.904 0c.312 0 .565.253.565.565v7.425a.565.565 0 0 1-1.13 0V5.957c0-.312.253-.565.565-.565zm2.906 0c.312 0 .564.253.564.565v7.425a.564.564 0 1 1-1.129 0V5.957c0-.312.252-.565.565-.565z"/>
</svg>
