<svg xmlns="http://www.w3.org/2000/svg" width="130" height="130">
    <defs>
        <linearGradient id="dqbesxv69a" x1="0%" x2="0%" y1="100%" y2="0%">
            <stop offset="0%" stop-color="#5691F5"/>
            <stop offset="100%" stop-color="#9667EF"/>
        </linearGradient>
    </defs>
    <path fill-rule="evenodd" fill="#E4B90B" d="M64.1 0c36.799 0 65 29.101 65 65s-28.201 65-65 65C29.102 130-.001 100.899-.001 65S29.102 0 64.1 0z"/>
    <path fill="url(#dqbesxv69a)" d="M64.1 0c36.799 0 65 29.101 65 65s-28.201 65-65 65C29.102 130-.001 100.899-.001 65S29.102 0 64.1 0z"/>
    <path fill-rule="evenodd" fill="#FFF" d="M101.061 82.178c-6.518.632-8.308 4.038-8.988 8.96a1.303 1.303 0 0 1-1.294 1.119 1.303 1.303 0 0 1-1.294-1.119c-.68-4.922-2.47-8.328-8.99-8.96a1.298 1.298 0 0 1-1.178-1.288c0-.666.51-1.224 1.178-1.288 6.52-.632 8.31-4.038 8.99-8.96a1.303 1.303 0 0 1 1.294-1.118c.652 0 1.205.478 1.294 1.118.68 4.922 2.47 8.328 8.988 8.96a1.297 1.297 0 0 1 1.178 1.288c0 .666-.509 1.224-1.178 1.288zm-10.282-6.321c-.915 2.021-2.415 3.847-4.954 5.033 2.539 1.185 4.039 3.011 4.954 5.032.916-2.021 2.415-3.847 4.954-5.032-2.539-1.186-4.038-3.012-4.954-5.033zm-8.9-4.87c-11.701 1.134-13.498 7.486-14.63 15.674a1.303 1.303 0 0 1-1.294 1.119 1.302 1.302 0 0 1-1.293-1.119c-1.191-8.607-4.326-14.566-15.759-15.674a1.298 1.298 0 0 1-1.178-1.288c0-.666.51-1.223 1.178-1.288 11.433-1.108 14.568-7.068 15.759-15.675a1.302 1.302 0 0 1 1.293-1.119c.652 0 1.205.478 1.294 1.119 1.132 8.188 2.929 14.542 14.63 15.675a1.298 1.298 0 0 1 1.178 1.288c0 .666-.509 1.224-1.178 1.288zM65.871 59.224c-1.534 4.466-4.45 8.427-10.444 10.475 5.994 2.047 8.91 6.008 10.444 10.475 1.334-4.603 3.85-8.469 9.552-10.475-5.702-2.006-8.218-5.872-9.552-10.475zm6.943-13.713a1.3 1.3 0 0 1-1.306-1.295v-4.029c-3.876 3.403-11.704 5.685-20.949 5.685-9.244 0-17.073-2.282-20.949-5.685v4.389c0 3.784 8.603 7.999 20.949 7.999a1.3 1.3 0 0 1 1.306 1.295 1.3 1.3 0 0 1-1.306 1.295c-9.244 0-17.073-2.282-20.949-5.684v5.55c0 3.353 6.199 6.56 14.741 7.624a1.296 1.296 0 0 1 1.133 1.445 1.3 1.3 0 0 1-1.457 1.123c-6.505-.81-11.559-2.693-14.417-5.199v5.463c0 3.098 5.388 6.137 13.104 7.388a1.295 1.295 0 0 1 1.076 1.487 1.3 1.3 0 0 1-1.498 1.068c-9.433-1.531-15.293-5.34-15.293-9.943V35.283c0-5.937 10.349-10.588 23.56-10.588 13.211 0 23.561 4.651 23.561 10.588v8.933a1.3 1.3 0 0 1-1.306 1.295zM50.559 27.284c-12.346 0-20.949 4.215-20.949 7.999 0 3.783 8.603 7.999 20.949 7.999 12.346 0 20.949-4.216 20.949-7.999 0-3.784-8.603-7.999-20.949-7.999zM65.828 94.15c4.882-.473 6.222-3.029 6.733-6.722a1.302 1.302 0 0 1 1.293-1.118 1.304 1.304 0 0 1 1.294 1.119c.509 3.692 1.849 6.248 6.731 6.721a1.297 1.297 0 0 1 1.178 1.288c0 .666-.509 1.223-1.178 1.288-4.882.473-6.222 3.03-6.731 6.722a1.304 1.304 0 0 1-1.294 1.119 1.302 1.302 0 0 1-1.293-1.119c-.511-3.692-1.851-6.249-6.733-6.722a1.298 1.298 0 0 1-1.178-1.288c0-.666.509-1.224 1.178-1.288zm8.026 4.531a7.757 7.757 0 0 1 3.197-3.243 7.758 7.758 0 0 1-3.198-3.242 7.76 7.76 0 0 1-3.199 3.242 7.771 7.771 0 0 1 3.2 3.243z"/>
</svg>
