<svg xmlns="http://www.w3.org/2000/svg" width="130" height="130">
    <defs>
        <linearGradient id="fef16bkxna" x1="0%" x2="0%" y1="100%" y2="0%">
            <stop offset="0%" stop-color="#5691F5"/>
            <stop offset="100%" stop-color="#9667EF"/>
        </linearGradient>
    </defs>
    <path fill-rule="evenodd" fill="#E4B90B" d="M64.1 0c36.799 0 65 29.101 65 65s-28.201 65-65 65C29.102 130-.001 100.899-.001 65S29.102 0 64.1 0z"/>
    <path fill="url(#fef16bkxna)" d="M64.1 0c36.799 0 65 29.101 65 65s-28.201 65-65 65C29.102 130-.001 100.899-.001 65S29.102 0 64.1 0z"/>
    <path fill-rule="evenodd" fill="#FFF" d="M95.552 61.357h-5.428v44.753H49.24V61.357h-5.428c-.73 0-1.321-.589-1.321-1.314 0-.725.591-1.314 1.321-1.314H58.238v-6.713h22.888v6.713H95.552c.729 0 1.321.589 1.321 1.314 0 .725-.592 1.314-1.321 1.314zm-17.068-6.714H60.879v4.086h17.605v-4.086zm8.998 6.714H51.881v42.125h35.601V61.357zM59.558 67.68c.73 0 1.321.588 1.321 1.314v25.733c0 .725-.591 1.313-1.321 1.313-.729 0-1.32-.588-1.32-1.313V68.994c0-.726.591-1.314 1.32-1.314zm10.124 0c.729 0 1.321.588 1.321 1.314v25.733c0 .725-.592 1.313-1.321 1.313-.73 0-1.321-.588-1.321-1.313V68.994c0-.726.591-1.314 1.321-1.314zm10.123 0c.729 0 1.321.588 1.321 1.314v25.733c0 .725-.592 1.313-1.321 1.313a1.317 1.317 0 0 1-1.321-1.313V68.994c0-.726.592-1.314 1.321-1.314zM69.269 47.095c-.729 0-1.32-.588-1.32-1.313v-4.088c-3.922 3.452-11.842 5.767-21.194 5.767-9.353 0-17.273-2.315-21.194-5.767v4.453c0 3.386 6.236 6.635 14.831 7.724a1.314 1.314 0 0 1 1.143 1.468 1.319 1.319 0 0 1-1.477 1.138c-6.536-.829-11.618-2.736-14.497-5.267v5.545c0 3.403 6.271 6.655 14.913 7.734a1.315 1.315 0 0 1 1.146 1.468 1.316 1.316 0 0 1-1.473 1.139c-6.582-.822-11.695-2.733-14.586-5.275v5.543c0 3.143 5.451 6.226 13.257 7.496a1.314 1.314 0 1 1-.428 2.593c-9.542-1.554-15.471-5.42-15.471-10.089V36.717c0-6.024 10.47-10.743 23.836-10.743 13.365 0 23.835 4.719 23.835 10.743v9.065c0 .725-.591 1.313-1.321 1.313zM46.755 28.602c-12.491 0-21.194 4.277-21.194 8.115 0 3.839 8.703 8.117 21.194 8.117 12.49 0 21.194-4.278 21.194-8.117 0-3.838-8.704-8.115-21.194-8.115z"/>
</svg>
