<svg xmlns="http://www.w3.org/2000/svg" width="130" height="130">
    <defs>
        <linearGradient id="odvruto40a" x1="0%" x2="0%" y1="100%" y2="0%">
            <stop offset="0%" stop-color="#5691F5"/>
            <stop offset="100%" stop-color="#9667EF"/>
        </linearGradient>
    </defs>
    <path fill-rule="evenodd" fill="#E4B90B" d="M64.1 0c36.799 0 65 29.101 65 65s-28.201 65-65 65C29.102 130-.001 100.899-.001 65S29.102 0 64.1 0z"/>
    <path fill="url(#odvruto40a)" d="M64.1 0c36.799 0 65 29.101 65 65s-28.201 65-65 65C29.102 130-.001 100.899-.001 65S29.102 0 64.1 0z"/>
    <path fill-rule="evenodd" fill="#FFF" d="M89.643 71.498a1.309 1.309 0 1 1 0-2.616h7.528c-3.796-8.526-12.324-14.133-21.778-14.133-10.083 0-19.115 6.379-22.477 15.874a1.31 1.31 0 0 1-2.468-.873c3.731-10.537 13.756-17.617 24.945-17.617 10.229 0 19.468 5.926 23.829 14.992v-7.816a1.308 1.308 0 0 1 2.618 0v12.189H89.643zM73.944 46.033a1.309 1.309 0 0 1-1.309-1.308v-4.071c-3.887 3.437-11.738 5.743-21.008 5.743-9.271 0-17.121-2.306-21.008-5.743v4.435c0 3.823 8.627 8.082 21.008 8.082a1.308 1.308 0 1 1 0 2.616c-9.271 0-17.121-2.305-21.008-5.743v5.609c0 3.388 6.216 6.628 14.782 7.703a1.307 1.307 0 1 1-.324 2.595c-6.525-.819-11.593-2.722-14.458-5.254v5.521c0 3.13 5.403 6.2 13.141 7.465a1.308 1.308 0 1 1-.424 2.582c-9.458-1.547-15.335-5.397-15.335-10.047v-30.52c0-5.999 10.378-11.598 23.626-11.598 13.247 0 23.626 5.599 23.626 11.598v9.027c0 .722-.586 1.308-1.309 1.308zM51.627 27.616c-12.381 0-21.008 4.26-21.008 8.082 0 3.823 8.627 8.083 21.008 8.083 12.38 0 21.008-4.26 21.008-8.083 0-3.822-8.628-8.082-21.008-8.082zm23.908 63.226a1.31 1.31 0 0 1-1.309-1.309V71.724l-6.158 6.154a1.31 1.31 0 0 1-1.852-1.85l9.319-9.312.925.924.002.003 8.391 8.385a1.308 1.308 0 1 1-1.852 1.849l-6.156-6.153v17.809a1.31 1.31 0 0 1-1.31 1.309zm-12.799-3.904a1.31 1.31 0 0 1-1.309 1.309h-7.814c3.796 8.524 12.325 14.131 21.78 14.131 10.085 0 19.117-6.38 22.474-15.875a1.303 1.303 0 0 1 1.67-.798c.683.241 1.039.988.798 1.669-3.725 10.539-13.749 17.62-24.942 17.62-10.23 0-19.47-5.927-23.831-14.992v8.102a1.309 1.309 0 0 1-2.618 0V85.63h12.483a1.31 1.31 0 0 1 1.309 1.308z"/>
</svg>
