<svg xmlns="http://www.w3.org/2000/svg" width="19" height="21">
    <path fill-rule="evenodd" fill="#2E2E2E" d="M9.189 20.131c-4.455 0-9.19-1.534-9.19-4.377V4.376C-.001 1.534 4.734 0 9.189 0c4.456 0 9.191 1.534 9.191 4.376v11.378c0 2.843-4.735 4.377-9.191 4.377zm0-1.751c4.542 0 7.44-1.555 7.44-2.626V14.46c-1.78 1.136-4.664 1.732-7.44 1.732-2.776 0-5.66-.596-7.44-1.733v1.295c0 1.071 2.898 2.626 7.44 2.626zM1.749 7.877c0 1.07 2.898 2.626 7.44 2.626s7.44-1.556 7.44-2.626V7.02c-1.78 1.136-4.664 1.732-7.44 1.732-2.776 0-5.66-.596-7.44-1.732v.857zm7.44 4.376c-2.776 0-5.66-.596-7.44-1.732v1.295c0 1.07 2.898 2.625 7.44 2.625s7.44-1.555 7.44-2.625v-1.295c-1.78 1.136-4.664 1.732-7.44 1.732zm0-10.503c-4.542 0-7.44 1.555-7.44 2.626 0 1.07 2.898 2.626 7.44 2.626s7.44-1.556 7.44-2.626c0-1.071-2.898-2.626-7.44-2.626z"/>
</svg>
