<svg xmlns="http://www.w3.org/2000/svg" width="24" height="24">
    <path fill-rule="evenodd" fill="#2E2E2E" d="M20.385 23.717a.658.658 0 0 1-.266.058H3.656a.658.658 0 0 1-.266-.058C1.478 23.437 0 21.802 0 19.813V3.966A3.966 3.966 0 0 1 3.962.004h15.031a.368.368 0 0 1 .165.023.66.66 0 0 1 .418.34c.346.374.89 1.093 1.886 2.411.758 1.003 1.787 2.363 2.039 2.633.165.12.274.315.274.536v13.866c0 1.989-1.478 3.624-3.39 3.904zm-.927-1.263v-8.202c0-.971-.79-1.761-1.76-1.761H6.077c-.97 0-1.761.79-1.761 1.761v8.202h15.142zM15.52 1.325H8.255v3.962c0 .331.27.602.602.602h6.06a.604.604 0 0 0 .603-.602V1.325zm6.934 4.889c-.34-.384-.913-1.142-2.045-2.64-.622-.821-1.37-1.811-1.7-2.215a1.406 1.406 0 0 1-.194-.034H16.84v3.962c0 1.06-.862 1.922-1.923 1.922h-6.06a1.925 1.925 0 0 1-1.923-1.922V1.325H3.962a2.644 2.644 0 0 0-2.641 2.641v15.847a2.64 2.64 0 0 0 1.675 2.452v-8.013a3.084 3.084 0 0 1 3.081-3.081h11.621a3.084 3.084 0 0 1 3.081 3.081v8.013a2.64 2.64 0 0 0 1.675-2.452V6.214z"/>
</svg>
