<svg xmlns="http://www.w3.org/2000/svg" width="25" height="25">
    <path fill-rule="evenodd" fill="#2E2E2E" d="M21.083 24.529a.687.687 0 0 1-.276.06H3.781a.686.686 0 0 1-.275-.06C1.528 24.239 0 22.548 0 20.491V4.102A4.102 4.102 0 0 1 4.098.004h15.545a.38.38 0 0 1 .171.024c.189.05.346.18.432.352.358.386.921 1.13 1.951 2.493.784 1.037 1.848 2.444 2.108 2.724a.68.68 0 0 1 .284.554v14.34c0 2.057-1.529 3.748-3.506 4.038zM4.464 23.223h15.66V14.74a1.823 1.823 0 0 0-1.821-1.821H6.285a1.823 1.823 0 0 0-1.821 1.821v8.483zM16.051 1.37H8.538v4.098c0 .343.279.622.623.622h6.267a.624.624 0 0 0 .623-.622V1.37zm7.172 5.056c-.352-.396-.945-1.181-2.116-2.729-.642-.85-1.416-1.873-1.758-2.292a1.35 1.35 0 0 1-.2-.035h-1.732v4.098a1.99 1.99 0 0 1-1.989 1.988H9.161a1.99 1.99 0 0 1-1.989-1.988V1.37H4.098a2.735 2.735 0 0 0-2.732 2.732v16.389a2.73 2.73 0 0 0 1.732 2.536V14.74a3.191 3.191 0 0 1 3.187-3.187h12.018a3.19 3.19 0 0 1 3.187 3.187v8.287a2.73 2.73 0 0 0 1.733-2.536V6.426zM11.047 21.175V15.29l4.42 2.942-4.42 2.943z"/>
</svg>
