<svg xmlns="http://www.w3.org/2000/svg" width="21" height="21">
    <path fill-rule="evenodd" fill="#1483F3" d="M19.878 20.473H1.06a.58.58 0 0 1-.58-.579V2.711c0-.32.26-.58.58-.58h2.693V1.075a.58.58 0 0 1 .58-.58h2.454c.32 0 .58.259.58.58v1.056h6.204V1.075c0-.321.26-.58.58-.58h2.455c.32 0 .579.259.579.58v1.056h2.693c.321 0 .58.26.58.58v17.183c0 .32-.259.579-.58.579zM6.207 1.654H4.913v2.114h1.294V1.654zm9.819 0h-1.295v2.114h1.295V1.654zm3.272 1.637h-2.113v1.057c0 .32-.259.579-.579.579h-2.455a.58.58 0 0 1-.58-.579V3.291H7.367v1.057a.58.58 0 0 1-.58.579H4.333a.579.579 0 0 1-.58-.579V3.291H1.64v2.931h17.658V3.291zm0 4.091H1.64v11.932h17.658V7.382zM2.696 10.655a.58.58 0 0 1 0-1.16h2.693V8.439a.58.58 0 1 1 1.16 0v1.056h3.34V8.439a.58.58 0 1 1 1.16 0v1.056h3.34V8.439a.58.58 0 1 1 1.16 0v1.056h2.693a.58.58 0 0 1 0 1.16h-2.693v2.113h2.693a.58.58 0 1 1 0 1.16h-2.693v2.113h2.693a.58.58 0 1 1 0 1.16h-2.693v1.056a.58.58 0 1 1-1.16 0v-1.056h-3.34v1.056a.58.58 0 1 1-1.16 0v-1.056h-3.34v1.056a.58.58 0 1 1-1.16 0v-1.056H2.696a.58.58 0 0 1 0-1.16h2.693v-2.113H2.696a.58.58 0 0 1 0-1.16h2.693v-2.113H2.696zm7.193 0h-3.34v2.113h3.34v-2.113zm4.5 0h-3.34v2.113h3.34v-2.113zm0 5.386v-2.113h-3.34v2.113h3.34zm-4.5 0v-2.113h-3.34v2.113h3.34z"/>
</svg>
