<svg xmlns="http://www.w3.org/2000/svg" width="130" height="130">
    <defs>
        <linearGradient id="4qkq00nxia" x1="0%" x2="0%" y1="100%" y2="0%">
            <stop offset="0%" stop-color="#5691F5"/>
            <stop offset="100%" stop-color="#9667EF"/>
        </linearGradient>
    </defs>
    <path fill-rule="evenodd" fill="#E4B90B" d="M64.1 0c36.799 0 65 29.101 65 65s-28.201 65-65 65C29.102 130-.001 100.899-.001 65S29.102 0 64.1 0z"/>
    <path fill="url(#4qkq00nxia)" d="M64.1 0c36.799 0 65 29.101 65 65s-28.201 65-65 65C29.102 130-.001 100.899-.001 65S29.102 0 64.1 0z"/>
    <path fill-rule="evenodd" fill="#FFF" d="M97.407 105.29H53.825c-.85 0-1.538-.693-1.538-1.548V68.65c0-.855.688-1.548 1.538-1.548h7.179v-2.864c0-8.109 6.556-14.707 14.613-14.707 8.057 0 14.612 6.598 14.612 14.707v2.864h7.178c.851 0 1.539.693 1.539 1.548v35.092c0 .855-.688 1.548-1.539 1.548zM87.152 64.238c0-6.402-5.174-11.61-11.535-11.61S64.08 57.836 64.08 64.238v2.864h23.072v-2.864zm8.717 5.961H55.364v31.995h40.505V70.199zM75.617 77.41c2.404 0 4.358 1.962 4.358 4.387a4.379 4.379 0 0 1-2.82 4.09v6.888c0 .856-.688 1.549-1.538 1.549-.85 0-1.538-.693-1.538-1.549v-6.887a4.377 4.377 0 0 1-2.821-4.091c0-2.425 1.95-4.387 4.359-4.387zm1.285-31.248c-.723 0-1.309-.59-1.309-1.317v-4.098c-3.885 3.461-11.732 5.782-20.998 5.782-9.267 0-17.114-2.322-20.999-5.782v4.465c0 3.848 8.624 8.135 20.999 8.135.723 0 1.308.59 1.308 1.317 0 .728-.585 1.318-1.308 1.318-9.267 0-17.114-2.321-20.999-5.782v5.646c0 3.411 6.214 6.672 14.776 7.754a1.315 1.315 0 0 1 1.136 1.47 1.312 1.312 0 0 1-1.46 1.143c-6.522-.824-11.587-2.74-14.452-5.289v5.557c0 3.152 5.401 6.242 13.135 7.515a1.316 1.316 0 0 1 1.079 1.513 1.31 1.31 0 0 1-1.502 1.087c-9.455-1.558-15.329-5.433-15.329-10.115V35.758c0-6.039 10.374-10.77 23.616-10.77 13.241 0 23.615 4.731 23.615 10.77v9.087c0 .727-.586 1.317-1.308 1.317zm-22.307-18.54c-12.375 0-20.999 4.288-20.999 8.136 0 3.849 8.624 8.137 20.999 8.137 12.375 0 20.998-4.288 20.998-8.137 0-3.848-8.623-8.136-20.998-8.136z"/>
</svg>
