<svg xmlns="http://www.w3.org/2000/svg" width="21" height="21">
    <path fill-rule="evenodd" fill="#2E2E2E" d="M10.499 20.5c-5.513 0-10-4.486-10-10.001C.499 4.985 4.986.5 10.499.5c5.514 0 10 4.485 10 9.999 0 5.515-4.486 10.001-10 10.001zm0-18.776c-4.838 0-8.775 3.937-8.775 8.775 0 4.839 3.937 8.776 8.775 8.776 4.839 0 8.776-3.937 8.776-8.776 0-4.838-3.937-8.775-8.776-8.775zm4.49 13.877a.61.61 0 0 1-.414-.16l-4.898-4.49a.613.613 0 0 1-.198-.452V6.01a.612.612 0 1 1 1.224 0v4.22l4.699 4.308a.612.612 0 0 1-.413 1.063z"/>
</svg>
