<svg xmlns="http://www.w3.org/2000/svg" width="25" height="25">
    <path fill-rule="evenodd" fill="#2E2E2E" d="M23.957 14.444h-2.834c-.199.784-.452 1.656-.773 2.314l2.018 2.018a.496.496 0 0 1 0 .702l-2.807 2.807a.496.496 0 0 1-.702 0l-2.019-2.017c-.658.319-1.529.573-2.313.772v2.834a.496.496 0 0 1-.497.496h-2.977a.497.497 0 0 1-.497-.496V21.04c-.785-.199-1.656-.453-2.314-.773l-2.018 2.018a.511.511 0 0 1-.702 0l-2.808-2.807a.496.496 0 0 1 0-.702l2.019-2.018c-.32-.658-.574-1.529-.773-2.314H1.126a.496.496 0 0 1-.496-.497V10.97c0-.275.222-.497.496-.497H3.96c.199-.785.453-1.656.773-2.314L2.715 6.141a.496.496 0 0 1 0-.702l2.807-2.807a.496.496 0 0 1 .702 0l2.018 2.017c.66-.321 1.53-.573 2.314-.771V1.043c0-.274.223-.496.497-.496h2.977c.275 0 .497.222.497.496v2.835c.783.198 1.653.45 2.313.771l2.018-2.017a.496.496 0 0 1 .702 0l2.808 2.807a.496.496 0 0 1 0 .702L20.35 8.159c.322.66.574 1.53.773 2.314h2.834c.274 0 .496.222.496.497v2.977a.496.496 0 0 1-.496.497zm-.497-2.978h-2.726a.496.496 0 0 1-.483-.38c-.133-.553-.487-2.021-.937-2.758a.498.498 0 0 1 .073-.61l1.928-1.928-2.106-2.105-1.929 1.928a.499.499 0 0 1-.609.073c-.662-.404-1.89-.728-2.757-.937a.496.496 0 0 1-.38-.483V1.54h-1.985v2.726c0 .23-.157.429-.38.483-.553.133-2.021.487-2.757.937a.495.495 0 0 1-.61-.073L5.873 3.685 3.767 5.79l1.929 1.929a.496.496 0 0 1 .072.61c-.446.731-.803 2.203-.938 2.757a.495.495 0 0 1-.482.38H1.623v1.985h2.725c.229 0 .429.157.482.38.135.554.492 2.026.938 2.757.12.196.09.448-.072.61l-1.929 1.929 2.106 2.105 1.928-1.929a.5.5 0 0 1 .61-.073c.733.449 2.205.805 2.758.939.223.054.38.253.38.482v2.726h1.985v-2.726c0-.229.157-.428.38-.482.553-.134 2.024-.49 2.756-.938a.497.497 0 0 1 .61.073l1.93 1.928 2.105-2.105-1.928-1.929a.498.498 0 0 1-.073-.61c.448-.732.804-2.203.938-2.757a.496.496 0 0 1 .482-.38h2.726v-1.985zm-10.918 5.956a4.97 4.97 0 0 1-4.964-4.964 4.97 4.97 0 0 1 4.964-4.963 4.97 4.97 0 0 1 4.963 4.963 4.97 4.97 0 0 1-4.963 4.964zm0-8.934a3.975 3.975 0 0 0-3.971 3.97 3.975 3.975 0 0 0 3.971 3.971 3.975 3.975 0 0 0 3.97-3.971 3.975 3.975 0 0 0-3.97-3.97z"/>
</svg>
