<svg xmlns="http://www.w3.org/2000/svg" width="130" height="130">
    <defs>
        <linearGradient id="9z0t8s2fga" x1="0%" x2="0%" y1="100%" y2="0%">
            <stop offset="0%" stop-color="#5691F5"/>
            <stop offset="100%" stop-color="#9667EF"/>
        </linearGradient>
    </defs>
    <path fill-rule="evenodd" fill="#E4B90B" d="M64.1 0c36.799 0 65 29.101 65 65s-28.201 65-65 65C29.102 130-.001 100.899-.001 65S29.102 0 64.1 0z"/>
    <path fill="url(#9z0t8s2fga)" d="M64.1 0c36.799 0 65 29.101 65 65s-28.201 65-65 65C29.102 130-.001 100.899-.001 65S29.102 0 64.1 0z"/>
    <path fill-rule="evenodd" fill="#FFF" d="M86.852 71.726a1.315 1.315 0 0 1 0-2.629h10.659c-3.816-8.568-12.385-14.202-21.886-14.202-10.132 0-19.208 6.411-22.587 15.952a1.313 1.313 0 0 1-1.677.801 1.314 1.314 0 0 1-.802-1.678c3.748-10.589 13.823-17.704 25.066-17.704 10.28 0 19.564 5.956 23.946 15.066V56.386c0-.726.589-1.314 1.316-1.314.727 0 1.316.588 1.316 1.314v15.34H86.852zm-12.683-25.59a1.315 1.315 0 0 1-1.315-1.314v-4.091c-3.906 3.454-11.795 5.772-21.112 5.772-9.316 0-17.205-2.318-21.111-5.773v4.458c0 3.841 8.67 8.121 21.111 8.121a1.316 1.316 0 1 1 0 2.629c-9.316 0-17.205-2.317-21.111-5.771v5.636c0 3.406 6.248 6.661 14.855 7.741a1.314 1.314 0 1 1-.325 2.608c-6.557-.822-11.65-2.735-14.53-5.28v5.548c0 3.146 5.431 6.231 13.206 7.502a1.313 1.313 0 0 1 1.084 1.509 1.312 1.312 0 0 1-1.51 1.086c-9.505-1.555-15.41-5.424-15.41-10.097V35.751c0-6.029 10.429-11.651 23.741-11.651 13.313 0 23.743 5.622 23.743 11.651v9.071c0 .725-.589 1.314-1.316 1.314zM51.742 27.629c-12.441 0-21.111 4.28-21.111 8.122 0 3.841 8.67 8.122 21.111 8.122 12.442 0 21.112-4.281 21.112-8.122 0-3.842-8.67-8.122-21.112-8.122zm11.164 59.613c0 .727-.589 1.315-1.315 1.315h-7.852c3.815 8.567 12.385 14.201 21.886 14.201 10.135 0 19.211-6.412 22.585-15.953a1.312 1.312 0 0 1 1.679-.802c.685.242 1.043.993.801 1.677-3.744 10.591-13.817 17.707-25.065 17.707-10.28 0-19.565-5.956-23.947-15.065v8.141a1.315 1.315 0 0 1-2.631 0V85.928h12.544c.726 0 1.315.588 1.315 1.314z"/>
</svg>
