<svg xmlns="http://www.w3.org/2000/svg" width="26" height="26">
    <path fill-rule="evenodd" fill="#2E2E2E" d="M24.943 25.997H.553a.554.554 0 0 1-.556-.554V1.053c0-.307.249-.555.556-.555h24.39c.307 0 .555.248.555.555v24.39a.554.554 0 0 1-.555.554zm-11.641-1.108h11.086v-4.434H13.302v4.434zm11.086-5.543v-4.99H13.302v4.99h11.086zM1.106 24.889h11.087v-4.434H1.106v4.434zm11.087-5.543v-4.99H1.106v4.99h11.087zM1.106 13.248h11.087V8.259H1.106v4.989zM24.388 1.607H1.106v5.544h23.282V1.607zM13.302 8.259v4.989h11.086V8.259H13.302z"/>
</svg>
