<svg xmlns="http://www.w3.org/2000/svg" width="20" height="19">
    <path fill-rule="evenodd" fill="#2E2E2E" d="M18.948 18.637a.46.46 0 0 1-.647 0l-5.832-5.731c-1.252 1.082-2.874 1.76-4.668 1.76-3.92 0-7.108-3.133-7.108-6.984C.693 3.83 3.881.697 7.801.697c3.918 0 7.107 3.133 7.107 6.985 0 1.763-.69 3.357-1.791 4.588l5.831 5.731c.18.175.18.46 0 .636zM7.801 1.597c-3.415 0-6.192 2.729-6.192 6.085 0 3.355 2.777 6.084 6.192 6.084 3.413 0 6.19-2.729 6.19-6.084 0-3.356-2.777-6.085-6.19-6.085z"/>
</svg>
